<svg width="70" height="95" viewBox="0 0 70 95" fill="none" xmlns="http://www.w3.org/2000/svg">
<mask id="mask0_74_354" style="mask-type:alpha" maskUnits="userSpaceOnUse" x="0" y="0" width="70" height="95">
<g clip-path="url(#clip0_74_354)">
<path d="M47 10.6099H66.5C66.5 10.6099 62.14 55.3199 56.76 55.3199C51.39 55.3199 47 10.6099 47 10.6099Z" stroke="#6D9973" stroke-miterlimit="10"/>
<path d="M57.78 55.3201V90.3201C57.78 90.5853 57.6746 90.8396 57.4871 91.0272C57.2995 91.2147 57.0452 91.3201 56.78 91.3201C56.5148 91.3201 56.2604 91.2147 56.0729 91.0272C55.8853 90.8396 55.78 90.5853 55.78 90.3201V55.3201" stroke="#6D9973" stroke-miterlimit="10"/>
<path d="M57.78 88.6799C63.84 88.7399 68.65 89.9099 68.65 91.3299C68.65 92.7499 63.5 93.9999 57.16 93.9999C50.82 93.9999 45.66 92.8099 45.66 91.3499C45.66 89.8899 50 88.8599 55.71 88.6899" stroke="#6D9973" stroke-miterlimit="10"/>
<path d="M49.2 28.48H64.32" stroke="#6D9973" stroke-miterlimit="10"/>
<path d="M55.32 33.2699C55.32 33.5448 55.2385 33.8135 55.0857 34.0421C54.933 34.2707 54.7159 34.4489 54.4619 34.5541C54.2079 34.6593 53.9284 34.6868 53.6588 34.6332C53.3892 34.5795 53.1415 34.4472 52.9471 34.2528C52.7527 34.0584 52.6203 33.8107 52.5667 33.5411C52.5131 33.2714 52.5406 32.9919 52.6458 32.738C52.751 32.484 52.9292 32.2669 53.1577 32.1141C53.3863 31.9614 53.6551 31.8799 53.93 31.8799C54.1125 31.8799 54.2933 31.9158 54.4619 31.9857C54.6306 32.0555 54.7838 32.1579 54.9129 32.287C55.0419 32.4161 55.1443 32.5693 55.2142 32.738C55.284 32.9066 55.32 33.0873 55.32 33.2699Z" stroke="#6D9973" stroke-miterlimit="10"/>
<path d="M57.16 38.6101C57.3754 38.6101 57.55 38.4355 57.55 38.2201C57.55 38.0047 57.3754 37.8301 57.16 37.8301C56.9446 37.8301 56.77 38.0047 56.77 38.2201C56.77 38.4355 56.9446 38.6101 57.16 38.6101Z" stroke="#6D9973" stroke-miterlimit="10"/>
<path d="M61.42 32.1499C61.42 32.2215 61.3915 32.2902 61.3409 32.3408C61.2903 32.3914 61.2216 32.4199 61.15 32.4199C61.0784 32.4199 61.0097 32.3914 60.9591 32.3408C60.9084 32.2902 60.88 32.2215 60.88 32.1499C60.88 32.0783 60.9084 32.0096 60.9591 31.959C61.0097 31.9083 61.0784 31.8799 61.15 31.8799C61.2216 31.8799 61.2903 31.9083 61.3409 31.959C61.3915 32.0096 61.42 32.0783 61.42 32.1499Z" stroke="#6D9973" stroke-miterlimit="10"/>
<path d="M58.39 43.09C58.39 43.2126 58.3536 43.3325 58.2855 43.4344C58.2174 43.5364 58.1205 43.6158 58.0073 43.6628C57.894 43.7097 57.7693 43.722 57.649 43.6981C57.5288 43.6741 57.4183 43.6151 57.3316 43.5284C57.2449 43.4417 57.1858 43.3312 57.1619 43.2109C57.138 43.0907 57.1503 42.966 57.1972 42.8527C57.2441 42.7394 57.3236 42.6426 57.4255 42.5745C57.5275 42.5063 57.6474 42.47 57.77 42.47C57.9344 42.47 58.0921 42.5353 58.2084 42.6516C58.3247 42.7678 58.39 42.9255 58.39 43.09Z" stroke="#6D9973" stroke-miterlimit="10"/>
<path d="M62.48 37.17C62.48 37.3025 62.4407 37.4321 62.3671 37.5422C62.2934 37.6524 62.1888 37.7383 62.0664 37.789C61.944 37.8397 61.8092 37.853 61.6793 37.8271C61.5493 37.8013 61.4299 37.7375 61.3362 37.6438C61.2425 37.5501 61.1787 37.4307 61.1529 37.3007C61.127 37.1707 61.1403 37.036 61.191 36.9136C61.2417 36.7912 61.3276 36.6865 61.4378 36.6129C61.5479 36.5393 61.6775 36.5 61.81 36.5C61.9877 36.5 62.1581 36.5706 62.2837 36.6962C62.4094 36.8219 62.48 36.9923 62.48 37.17Z" stroke="#6D9973" stroke-miterlimit="10"/>
<path d="M29.12 0.469971L47.44 7.05997C47.44 7.05997 28.22 47.66 23.16 45.84C18.1 44 29.12 0.469971 29.12 0.469971Z" stroke="#6D9973" stroke-miterlimit="10"/>
<path d="M24.12 46.18L12.29 79.09C12.2477 79.2199 12.1792 79.3398 12.0888 79.4423C11.9984 79.5448 11.8879 79.6276 11.7642 79.6857C11.6405 79.7438 11.5062 79.7759 11.3696 79.7801C11.233 79.7843 11.097 79.7604 10.97 79.71C10.84 79.6677 10.7201 79.5992 10.6177 79.5088C10.5152 79.4184 10.4324 79.3079 10.3743 79.1842C10.3162 79.0605 10.284 78.9262 10.2799 78.7896C10.2757 78.653 10.2995 78.517 10.35 78.39L22.17 45.48" stroke="#6D9973" stroke-miterlimit="10"/>
<path d="M12.83 77.5699C18.52 79.6799 22.66 82.4099 22.18 83.7399C21.7 85.0699 16.43 84.4999 10.46 82.3499C4.48999 80.1999 -1.44579e-05 77.3399 0.539986 75.9999C1.07999 74.6599 5.53999 75.1499 10.89 76.9099" stroke="#6D9973" stroke-miterlimit="10"/>
<path d="M24.45 21.4099L39.35 23.1299" stroke="#6D9973" stroke-miterlimit="10"/>
<path d="M29.26 24.6001C29.1669 24.8586 28.9992 25.0837 28.7782 25.247C28.5572 25.4103 28.2928 25.5044 28.0184 25.5174C27.7439 25.5305 27.4717 25.4619 27.2362 25.3204C27.0007 25.1789 26.8124 24.9707 26.6952 24.7222C26.5779 24.4737 26.5369 24.1961 26.5774 23.9243C26.6178 23.6525 26.7379 23.3989 26.9225 23.1953C27.1071 22.9918 27.3478 22.8475 27.6144 22.7807C27.8809 22.7139 28.1612 22.7276 28.42 22.8201C28.5921 22.8816 28.7505 22.9765 28.8859 23.0993C29.0214 23.2221 29.1313 23.3704 29.2093 23.5358C29.2873 23.7011 29.332 23.8803 29.3407 24.0629C29.3494 24.2455 29.3219 24.4281 29.26 24.6001Z" stroke="#6D9973" stroke-miterlimit="10"/>
<path d="M29.68 29.9999C29.6633 30.0486 29.6369 30.0934 29.6024 30.1315C29.5679 30.1697 29.526 30.2005 29.4793 30.222C29.4325 30.2435 29.3819 30.2553 29.3304 30.2567C29.279 30.258 29.2278 30.2489 29.18 30.2299C29.1264 30.2175 29.0761 30.1939 29.0323 30.1606C28.9886 30.1274 28.9523 30.0853 28.9259 30.0371C28.8996 29.9888 28.8837 29.9356 28.8793 29.8808C28.875 29.826 28.8823 29.7709 28.9007 29.7191C28.9192 29.6673 28.9483 29.62 28.9863 29.5803C29.0243 29.5406 29.0703 29.5094 29.1212 29.4887C29.1722 29.468 29.2269 29.4583 29.2818 29.4602C29.3367 29.4621 29.3906 29.4756 29.44 29.4999C29.4887 29.5167 29.5337 29.543 29.5722 29.5773C29.6107 29.6117 29.642 29.6533 29.6644 29.6998C29.6867 29.7463 29.6995 29.7967 29.7022 29.8483C29.7049 29.8998 29.6973 29.9513 29.68 29.9999Z" stroke="#6D9973" stroke-miterlimit="10"/>
<path d="M35.38 25.6101C35.3677 25.6437 35.3489 25.6746 35.3246 25.7009C35.3003 25.7272 35.2711 25.7485 35.2385 25.7634C35.2059 25.7782 35.1707 25.7865 35.1349 25.7877C35.0991 25.7888 35.0634 25.7828 35.03 25.7701C34.9963 25.7578 34.9654 25.739 34.9391 25.7147C34.9128 25.6904 34.8916 25.6611 34.8767 25.6286C34.8618 25.596 34.8535 25.5608 34.8524 25.525C34.8512 25.4892 34.8572 25.4535 34.87 25.4201C34.8811 25.3868 34.8989 25.3561 34.9223 25.3298C34.9456 25.3036 34.974 25.2824 35.0058 25.2674C35.0376 25.2525 35.072 25.2441 35.1071 25.2428C35.1422 25.2416 35.1772 25.2474 35.21 25.2601C35.2445 25.2713 35.2765 25.2894 35.3039 25.3132C35.3313 25.3371 35.3536 25.3662 35.3694 25.3989C35.3853 25.4316 35.3944 25.4671 35.3962 25.5034C35.398 25.5397 35.3925 25.576 35.38 25.6101Z" stroke="#6D9973" stroke-miterlimit="10"/>
<path d="M28.83 34.8799C28.7887 34.9956 28.714 35.0965 28.6153 35.1697C28.5166 35.2429 28.3984 35.2852 28.2756 35.291C28.1529 35.2969 28.0311 35.2662 27.9259 35.2027C27.8206 35.1393 27.7366 35.046 27.6845 34.9347C27.6324 34.8234 27.6145 34.6992 27.6331 34.5777C27.6518 34.4562 27.7061 34.343 27.7892 34.2525C27.8723 34.162 27.9804 34.0982 28.0999 34.0692C28.2193 34.0403 28.3446 34.0474 28.46 34.0899C28.5367 34.1167 28.6073 34.1585 28.6676 34.213C28.7279 34.2675 28.7767 34.3334 28.8112 34.407C28.8457 34.4806 28.8651 34.5603 28.8683 34.6415C28.8715 34.7227 28.8585 34.8038 28.83 34.8799Z" stroke="#6D9973" stroke-miterlimit="10"/>
<path d="M34.68 30.6799C34.6509 30.7623 34.6058 30.8382 34.5472 30.903C34.4886 30.9678 34.4177 31.0204 34.3386 31.0576C34.2595 31.0948 34.1738 31.1159 34.0865 31.1198C33.9992 31.1236 33.912 31.1101 33.83 31.0799C33.7468 31.052 33.67 31.0076 33.6044 30.9492C33.5389 30.8909 33.4858 30.8198 33.4484 30.7404C33.411 30.661 33.3901 30.5748 33.387 30.487C33.3838 30.3993 33.3984 30.3118 33.43 30.2299C33.4909 30.0651 33.6142 29.9308 33.7732 29.856C33.9321 29.7812 34.1142 29.7718 34.28 29.8299C34.4432 29.8929 34.5759 30.0164 34.6504 30.1748C34.7249 30.3331 34.7355 30.514 34.68 30.6799Z" stroke="#6D9973" stroke-miterlimit="10"/>
<path d="M53.98 17.21L57.44 18.34" stroke="#6D9973" stroke-miterlimit="10"/>
<path d="M56.28 16.04L55.14 19.5" stroke="#6D9973" stroke-miterlimit="10"/>
<path d="M65.64 23.5601L69.11 24.6901" stroke="#6D9973" stroke-miterlimit="10"/>
<path d="M67.94 22.3899L66.81 25.8599" stroke="#6D9973" stroke-miterlimit="10"/>
<path d="M60.62 14.28L65.66 15.92" stroke="#6D9973" stroke-miterlimit="10"/>
<path d="M63.96 12.5801L62.31 17.6201" stroke="#6D9973" stroke-miterlimit="10"/>
<path d="M26.42 5.31006L29.89 6.44006" stroke="#6D9973" stroke-miterlimit="10"/>
<path d="M28.72 4.1499L27.59 7.6099" stroke="#6D9973" stroke-miterlimit="10"/>
<path d="M33.8 2.28003L37.26 3.42003" stroke="#6D9973" stroke-miterlimit="10"/>
<path d="M36.1 1.11987L34.97 4.57987" stroke="#6D9973" stroke-miterlimit="10"/>
<path d="M30.65 9.23999L35.69 10.89" stroke="#6D9973" stroke-miterlimit="10"/>
<path d="M34 7.55005L32.35 12.58" stroke="#6D9973" stroke-miterlimit="10"/>
</g>
</mask>
<g mask="url(#mask0_74_354)">
<rect width="69" height="94" fill="#001F4D" fill-opacity="0.33"/>
</g>
<defs>
<clipPath id="clip0_74_354">
<rect width="69.26" height="94.48" fill="white"/>
</clipPath>
</defs>
</svg>
