<svg width="102" height="98" viewBox="0 0 102 98" fill="none" xmlns="http://www.w3.org/2000/svg">
<mask id="mask0_74_318" style="mask-type:alpha" maskUnits="userSpaceOnUse" x="0" y="0" width="119" height="98">
<g clip-path="url(#clip0_74_318)">
<path d="M71.3007 48.4677C73.7008 54.5828 67.3418 60.7586 61.2656 58.1242C60.3339 57.7182 59.4926 57.1303 58.7911 56.395C58.0895 55.6596 57.5418 54.7917 57.18 53.8419C56.8182 52.8921 56.6497 51.8797 56.6843 50.864C56.7189 49.8482 56.9559 48.8496 57.3814 47.9267C60.1652 41.9175 69.0214 42.2978 71.3007 48.4677ZM71.3007 48.4677C69.0707 42.4738 60.4454 42.3508 58.0297 48.2109C57.3086 49.9146 57.2737 51.831 57.9322 53.5598C58.5907 55.2886 59.8917 56.6962 61.5635 57.4884C67.2715 60.2719 73.6264 54.434 71.3007 48.4677Z" fill="#6D9973"/>
<path d="M94.595 38.8511C96.9951 44.9662 90.6409 51.1313 84.5706 48.5124C83.6389 48.1064 82.7976 47.5185 82.096 46.7832C81.3945 46.0478 80.8468 45.1798 80.485 44.2301C80.1232 43.2803 79.9547 42.2679 79.9893 41.2522C80.0239 40.2364 80.2609 39.2378 80.6864 38.3148C83.581 32.2015 92.2097 32.7747 94.6105 38.8452L94.595 38.8511ZM94.595 38.8511C92.2656 32.9216 83.7898 32.6797 81.3163 38.5972C80.5952 40.3009 80.5603 42.2173 81.2188 43.9461C81.8773 45.675 83.1783 47.0825 84.8501 47.8748C90.5552 50.6505 96.9023 44.8156 94.5796 38.857L94.595 38.8511Z" fill="#6D9973"/>
<path d="M65.4396 43.7949C62.6512 37.1018 58.912 27.4245 56.2196 20.5886L56.4696 20.4314L68.8626 12.8514L81.3005 5.34278L81.6808 5.10939L81.8398 5.52688C85.7859 15.8868 89.614 26.2857 93.3243 36.7236C89.1656 26.4565 85.1029 16.1469 81.1362 5.79486L81.6862 5.98374C75.5144 9.76878 63.0497 17.323 56.8436 21.0414L56.9876 20.6059C59.5731 27.3939 63.0517 37.0378 65.4396 43.7949Z" fill="#6D9973"/>
<path d="M69.8419 46.1018C66.8275 38.7925 63.9018 31.4523 61.0647 24.0814C66.0106 20.657 75.3692 14.2682 80.3629 10.9231C83.2705 18.5564 86.0636 26.2304 88.7424 33.9449C85.6831 26.5406 82.729 19.0873 79.8622 11.6538L80.4063 11.8273C75.7789 15.0417 66.4067 21.418 61.7237 24.5563L61.8599 24.1237C64.5888 31.412 67.2494 38.738 69.8419 46.1018Z" fill="#6D9973"/>
<path d="M28.992 47.2579C34.3019 55.5213 39.1326 64.0829 43.4602 72.9005C38.1493 64.6378 33.3185 56.0761 28.992 47.2579Z" fill="#6D9973"/>
<path d="M49.8725 75.9292C44.321 66.948 38.8408 57.922 33.4322 48.8511C35.1008 48.8509 36.7269 49.378 38.0781 50.357C39.2684 51.0949 40.3988 51.9253 41.4587 52.8407L40.9956 52.7869L43.0551 51.6395L42.9126 52.1718C40.0685 46.7039 34.5869 44.2592 28.9379 47.2785C34.7504 43.4798 40.8159 46.2953 43.7799 52.1247C43.6176 52.1866 41.6049 53.387 41.3586 53.5074L41.1211 53.651C39.5333 52.2365 37.7688 51.0338 35.8718 50.073C35.2991 49.791 34.6763 49.6251 34.0392 49.5848L34.3433 49.0352C39.5699 57.9689 44.736 66.9375 49.8416 75.9409L49.8725 75.9292Z" fill="#6D9973"/>
<path d="M50.6407 77.1327C51.3162 78.3338 51.6839 79.6834 51.7108 81.0612C51.7378 82.4389 51.4233 83.802 50.7953 85.0286C50.1674 86.2552 49.2455 87.3073 48.112 88.0909C46.9785 88.8746 45.6686 89.3654 44.2993 89.5197C42.9299 89.6739 41.5436 89.4868 40.2642 88.9749C38.9848 88.4631 37.852 87.6424 36.9669 86.5862C36.0818 85.5301 35.4719 84.2712 35.1917 82.9219C34.9115 81.5727 34.9697 80.1751 35.361 78.8538C35.8364 77.289 36.7596 75.8977 38.0167 74.8517C39.2737 73.8056 40.8097 73.1506 42.4348 72.9676C44.0599 72.7845 45.703 73.0814 47.1613 73.8216C48.6196 74.5618 49.8292 75.7129 50.6407 77.1327ZM50.6407 77.1327C50.0071 75.9972 49.1041 75.0348 48.0112 74.3303C46.9183 73.6258 45.669 73.2007 44.3732 73.0924C43.0774 72.9841 41.7748 73.196 40.5801 73.7094C39.3854 74.2228 38.3353 75.0219 37.522 76.0365C36.7087 77.0511 36.1572 78.25 35.9162 79.5278C35.6751 80.8056 35.7517 82.123 36.1394 83.3642C36.5271 84.6054 37.2139 85.7322 38.1394 86.6456C39.0649 87.5591 40.2007 88.231 41.4468 88.6023C48.2001 90.7132 54.146 83.3137 50.6407 77.1327Z" fill="#6D9973"/>
<path d="M57.0377 68.9417C59.4473 68.2562 61.9826 68.1357 64.4464 68.5897C62.0367 69.2751 59.5015 69.3956 57.0377 68.9417Z" fill="#6D9973"/>
<path d="M60.5637 65.0667C61.2493 67.4725 61.3714 70.004 60.9204 72.4647C60.2374 70.0584 60.1153 67.5275 60.5637 65.0667Z" fill="#6D9973"/>
<path d="M17.7842 68.5247C20.19 67.839 22.7215 67.7169 25.1822 68.1679C22.7759 68.8509 20.245 68.973 17.7842 68.5247Z" fill="#6D9973"/>
<path d="M21.3072 64.6419C21.9888 67.0521 22.1093 69.5865 21.6592 72.0505C20.9737 69.6409 20.8533 67.1056 21.3072 64.6419Z" fill="#6D9973"/>
<path d="M6.15472 52.38C9.68354 51.6293 13.3092 51.4435 16.8962 51.8297C13.3667 52.5754 9.74193 52.7611 6.15472 52.38Z" fill="#6D9973"/>
<path d="M11.2741 46.7384C12.0142 50.2765 12.1879 53.9097 11.7887 57.5023C11.0524 53.9637 10.8788 50.3311 11.2741 46.7384Z" fill="#6D9973"/>
<path d="M98.5925 28.9625C100.998 28.2757 103.53 28.1536 105.99 28.6057C103.584 29.2876 101.053 29.4097 98.5925 28.9625Z" fill="#6D9973"/>
<path d="M102.115 25.0798C102.801 27.4894 102.921 30.0246 102.467 32.4884C101.782 30.0788 101.662 27.5435 102.115 25.0798Z" fill="#6D9973"/>
<path d="M44.1844 39.6827C47.7266 38.9495 51.3629 38.7836 54.9572 39.1914C51.4258 39.9428 47.7977 40.1295 44.2079 39.7446L44.1844 39.6827Z" fill="#6D9973"/>
<path d="M49.3144 34.0459C50.061 37.5753 50.2467 41.2003 49.8647 44.7874C49.1142 41.2586 48.9285 37.633 49.3144 34.0459Z" fill="#6D9973"/>
</g>
</mask>
<g mask="url(#mask0_74_318)">
<rect y="36.2217" width="101.759" height="66.185" transform="rotate(-20.8519 0 36.2217)" fill="#001F4D" fill-opacity="0.33"/>
</g>
<defs>
<clipPath id="clip0_74_318">
<rect width="101.759" height="65.8706" fill="white" transform="translate(0 36.2217) rotate(-20.8519)"/>
</clipPath>
</defs>
</svg>
