<svg width="102" height="111" viewBox="0 0 102 111" fill="none" xmlns="http://www.w3.org/2000/svg">
<mask id="mask0_74_294" style="mask-type:alpha" maskUnits="userSpaceOnUse" x="-6" y="0" width="109" height="111">
<g clip-path="url(#clip0_74_294)">
<path d="M23.4016 81.2552C36.3209 85.5722 50.2937 78.5987 54.6107 65.6793C58.9277 52.76 51.9542 38.7872 39.0349 34.4702C26.1156 30.1532 12.1428 37.1267 7.82577 50.046C3.50875 62.9654 10.4823 76.9382 23.4016 81.2552Z" stroke="#6D9973" stroke-miterlimit="10"/>
<path d="M31.5801 78.0813C42.7437 77.8762 51.6274 68.6599 51.4222 57.4962C51.2171 46.3325 42.0008 37.4489 30.8371 37.654C19.6734 37.8592 10.7898 47.0755 10.9949 58.2392C11.2001 69.4028 20.4164 78.2865 31.5801 78.0813Z" stroke="#6D9973" stroke-miterlimit="10"/>
<path d="M72.0709 91.0437C79.897 79.8948 77.2033 64.5126 66.0544 56.6865C54.9054 48.8605 39.5232 51.5542 31.6972 62.7031C23.8711 73.852 26.5648 89.2343 37.7137 97.0603C48.8626 104.886 64.2449 102.193 72.0709 91.0437Z" stroke="#6D9973" stroke-miterlimit="10"/>
<path d="M46.4667 96.3536C57.2242 99.3445 68.3695 93.0483 71.3603 82.2908C74.3512 71.5332 68.055 60.3879 57.2975 57.3971C46.54 54.4062 35.3947 60.7024 32.4038 71.4599C29.413 82.2175 35.7091 93.3628 46.4667 96.3536Z" stroke="#6D9973" stroke-miterlimit="10"/>
<path d="M44.3157 28.417L36.2298 33.7264L30.9239 25.6339L32.3188 18.9397L36.965 16.5805L42.3423 17.6998L45.7106 21.7229L44.3157 28.417Z" stroke="#6D9973" stroke-miterlimit="10"/>
<path d="M32.3188 18.9397L37.0391 22.2095L41.6197 23.1632L45.7106 21.7229" stroke="#6D9973" stroke-miterlimit="10"/>
<path d="M42.3423 17.6997L41.6197 23.1631L36.2298 33.7264" stroke="#6D9973" stroke-miterlimit="10"/>
<path d="M36.2298 33.7265L37.0391 22.2096L36.965 16.5806" stroke="#6D9973" stroke-miterlimit="10"/>
<path d="M30.9239 25.6339L37.0391 22.2095" stroke="#6D9973" stroke-miterlimit="10"/>
<path d="M41.6197 23.1632L44.3158 28.417" stroke="#6D9973" stroke-miterlimit="10"/>
<path d="M42.281 4.60583L40.4796 13.2703" stroke="#6D9973" stroke-miterlimit="10"/>
<path d="M44.2781 14.995L49.2064 10.5642" stroke="#6D9973" stroke-miterlimit="10"/>
<path d="M36.1869 13.3153L33.4309 7.28796" stroke="#6D9973" stroke-miterlimit="10"/>
</g>
</mask>
<g mask="url(#mask0_74_294)">
<rect x="35.3854" y="-2.64014" width="77.2387" height="88.4871" transform="rotate(28.3372 35.3854 -2.64014)" fill="#001F4D" fill-opacity="0.33"/>
</g>
<defs>
<clipPath id="clip0_74_294">
<rect width="77.3062" height="84.1902" fill="white" transform="translate(33.9617) rotate(28.3372)"/>
</clipPath>
</defs>
</svg>
